# xmcd
#
# Track frame offsets:
#	150
#	9628
#	18780
#	35059
#	51642
#	69997
#	84402
#	103826
#	111431
#	128427
#	132094
#	140675
#	153725
#	166268
#	183387
#	189768
#
# Disc length: 2857 seconds
#
# Revision: 1
# Processed by: cddbd v1.5.2PL0 Copyright (c) Steve Scherf et al.
# Submitted via: audiograbber 1.83.01
#
DISCID=d70b2710
DTITLE=Kimmie Rhodes - Small Town Girl
DYEAR=2006
DGENRE=Folk/Country
TTITLE0=Small Town Girl
TTITLE1=Life Is Just A Circus Anyway
TTITLE2=West Texas Heaven
TTITLE3=Mama Believed In Miracles
TTITLE4=Angels Unawares
TTITLE5=Wake Up Sleepy Town
TTITLE6=Daddy's Song
TTITLE7=West Texas Tango
TTITLE8=Our Father's Face
TTITLE9=The Wind Was Talking
TTITLE10=Card Houses
TTITLE11=Daddy Took The Small Town Girl Away, She's Starring
TTITLE12=Look At You
TTITLE13=Rose Loves The Carnival
TTITLE14=Take It With You
TTITLE15=Rhinestone Highway
EXTD=
EXTT0=
EXTT1=
EXTT2=
EXTT3=
EXTT4=
EXTT5=
EXTT6=
EXTT7=
EXTT8=
EXTT9=
EXTT10=
EXTT11=
EXTT12=
EXTT13=
EXTT14=
EXTT15=
PLAYORDER=
